<svg xmlns="http://www.w3.org/2000/svg" width="420" height="900" viewBox="0 0 420 900">
  <rect width="420" height="900" fill="#faf8f5"/>
  <g font-family="Arial, Helvetica, sans-serif">
    <text x="22" y="38" font-size="9" font-weight="700" letter-spacing="1.6" fill="#a07842">ACOMPANHAMENTO</text>
    <text x="22" y="74" font-size="28" font-weight="700" fill="#302e28">Jogo</text>
    <text x="22" y="99" font-size="13" fill="#8d8980">Acompanhe o confronto em tempo real.</text>

    <rect x="20" y="122" width="380" height="318" rx="16" fill="#ffffff" stroke="#e8e4dc"/>
    <rect x="148" y="140" width="144" height="28" rx="14" fill="#e8efe5"/>
    <circle cx="165" cy="154" r="4" fill="#355345"/>
    <text x="222" y="158" text-anchor="middle" font-size="11" font-weight="700" fill="#355345">EM ANDAMENTO</text>

    <text x="113" y="211" text-anchor="middle" font-size="17" font-weight="700" fill="#355345">Time 1</text>
    <text x="307" y="211" text-anchor="middle" font-size="17" font-weight="700" fill="#355345">Time 2</text>
    <text x="210" y="210" text-anchor="middle" font-size="11" font-weight="700" fill="#a07842">VS</text>
    <line x1="175" y1="206" x2="193" y2="206" stroke="#e8e4dc"/>
    <line x1="227" y1="206" x2="245" y2="206" stroke="#e8e4dc"/>

    <text x="210" y="250" text-anchor="middle" font-size="9" font-weight="700" letter-spacing="1.4" fill="#8d8980">TEMPO DECORRIDO</text>
    <text x="210" y="316" text-anchor="middle" font-size="58" font-weight="700" fill="#302e28" font-variant-numeric="tabular-nums">08:32</text>
    <text x="210" y="341" text-anchor="middle" font-size="12" fill="#8d8980">Duração total: 10 minutos</text>

    <rect x="38" y="365" width="344" height="52" rx="10" fill="#355345"/>
    <rect x="170" y="384" width="5" height="15" rx="1" fill="#ffffff"/>
    <rect x="180" y="384" width="5" height="15" rx="1" fill="#ffffff"/>
    <text x="232" y="397" text-anchor="middle" font-size="14" font-weight="700" fill="#ffffff">Pausar jogo</text>

    <text x="22" y="484" font-size="18" font-weight="700" fill="#302e28">Encerrar confronto</text>
    <rect x="20" y="500" width="380" height="174" rx="14" fill="#ffffff" stroke="#e8e4dc"/>
    <text x="38" y="528" font-size="12" font-weight="700" fill="#302e28">Time vencedor</text>
    <rect x="38" y="538" width="344" height="44" rx="10" fill="#ffffff" stroke="#e8e4dc"/>
    <text x="52" y="565" font-size="13" fill="#8d8980">Selecione o vencedor</text>
    <path d="M360 556l6 6 6-6" fill="none" stroke="#8d8980" stroke-width="1.6"/>
    <rect x="38" y="599" width="344" height="52" rx="10" fill="#ffffff" stroke="#355345"/>
    <text x="210" y="631" text-anchor="middle" font-size="14" font-weight="700" fill="#355345">Finalizar jogo</text>

    <rect x="0" y="846" width="420" height="54" fill="#ffffff" stroke="#e8e4dc"/>
    <g fill="#8d8980" font-size="8.5" text-anchor="middle">
      <text x="35" y="881">Início</text><text x="105" y="881">Jogadores</text>
      <text x="175" y="881">Sorteio</text><text x="245" y="881">Partidas</text>
      <text x="315" y="881" fill="#355345" font-weight="700">Jogo</text><text x="385" y="881">Histórico</text>
    </g>
    <g fill="none" stroke="#8d8980" stroke-width="1.5" stroke-linecap="round" stroke-linejoin="round">
      <path d="M31 858l4-4 4 4v7h-3v-5h-2v5h-3z"/>
      <circle cx="102" cy="856" r="2.7"/><circle cx="109" cy="856" r="2.7"/><path d="M98 865c1-4 7-4 9 0m-1 0c1-4 7-4 9 0"/>
      <path d="M171 858a6 6 0 0 1 10-3l2 2m0-4v4h-4m2 5a6 6 0 0 1-10 3l-2-2m0 4v-4h4"/>
      <rect x="239" y="853" width="12" height="13" rx="2"/><path d="M242 851v4m6-4v4m-6 3h1m3 0h1m-4 3h1m3 0h1"/>
      <circle cx="315" cy="860" r="7" stroke="#355345"/><path d="M313 857v6l5-3z" stroke="#355345" fill="#355345"/>
      <circle cx="385" cy="860" r="7"/><path d="M385 856v4l3 2"/>
    </g>
  </g>
</svg>
